<?xml version="1.0" encoding="iso-8859-1"?>
<!-- Generator: Adobe Illustrator 19.0.0, SVG Export Plug-In . SVG Version: 6.00 Build 0)  -->
<!-- License: CC0. Made by SVG Repo: https://www.svgrepo.com/svg/282778/dove -->
<svg version="1.1" id="Layer_1" xmlns="http://www.w3.org/2000/svg" xmlns:xlink="http://www.w3.org/1999/xlink" x="0px" y="0px"
	 viewBox="0 0 512 512" style="enable-background:new 0 0 512 512;" xml:space="preserve">
<g>
	<g>
		<circle cx="361.739" cy="139.13" r="16.696"/>
	</g>
</g>
<g>
	<g>
		<path d="M443.785,123.856c-8.212-44.228-50.202-74.518-95.945-67.076c-34.32,5.585-61.32,33.993-67.98,69.092
			c-21.329-22.658-51.577-36.831-85.077-36.831H83.478c-9.22,0-16.696,7.475-16.696,16.696v100.174
			c0,17.914,4.057,34.897,11.292,50.087H16.696C7.475,255.998,0,263.473,0,272.693v33.391c0,27.618,22.469,50.087,50.087,50.087
			c0,0,27.065,0,47.856,0.009c31.24,61.195,94.306,100.165,163.622,100.165c101.266,0,183.652-82.386,183.652-183.652v-50.087
			h50.087c9.22,0,16.696-7.475,16.696-16.696C512,165.095,482.548,131.051,443.785,123.856z M411.826,272.693
			c0,82.854-67.407,150.261-150.261,150.261c-59.753,0-113.827-35.386-137.759-90.15c-2.656-6.076-8.655-10.005-15.287-10.01
			c-20.572-0.014-58.433-0.014-58.433-0.014c-9.206,0-16.696-7.49-16.696-16.696v-16.696h68.559
			c21.088,20.644,49.931,33.391,81.702,33.391h44.522c9.22,0,16.696-7.475,16.696-16.696s-7.475-16.696-16.696-16.696h-44.522
			c-46.03,0-83.478-37.448-83.478-83.478v-16.696h94.609c9.206,0,16.696,7.49,16.696,16.696v33.391
			c0,9.22,7.475,16.696,16.696,16.696c9.22,0,16.696-7.475,16.696-16.696v-33.391c0-27.618-22.469-50.087-50.087-50.087h-94.609
			v-33.391h94.609c46.03,0,83.478,37.448,83.478,83.478v33.391c0,9.22,7.475,16.696,16.696,16.696s16.696-7.475,16.696-16.696
			c0-7.433,0-84.989,0-96.601c0-26.339,17.863-49.109,41.55-52.963c32.047-5.216,58.624,19.438,58.624,49.39
			C411.826,145.008,411.826,266.849,411.826,272.693z M445.217,189.215v-30.531c14.211,5.039,25.492,16.319,30.531,30.531H445.217z"
			/>
	</g>
</g>
</svg>
